<svg width="14" height="14" viewBox="0 0 14 14" fill="none" xmlns="http://www.w3.org/2000/svg">
<path d="M9.44352 1.16699H4.55518C2.43185 1.16699 1.16602 2.43283 1.16602 4.55616V9.43866C1.16602 11.5678 2.43185 12.8337 4.55518 12.8337H9.43768C11.561 12.8337 12.8268 11.5678 12.8268 9.44449V4.55616C12.8327 2.43283 11.5668 1.16699 9.44352 1.16699ZM9.33268 7.43783H7.43685V9.33366C7.43685 9.57283 7.23852 9.77116 6.99935 9.77116C6.76018 9.77116 6.56185 9.57283 6.56185 9.33366V7.43783H4.66602C4.42685 7.43783 4.22852 7.23949 4.22852 7.00033C4.22852 6.76116 4.42685 6.56283 4.66602 6.56283H6.56185V4.66699C6.56185 4.42783 6.76018 4.22949 6.99935 4.22949C7.23852 4.22949 7.43685 4.42783 7.43685 4.66699V6.56283H9.33268C9.57185 6.56283 9.77018 6.76116 9.77018 7.00033C9.77018 7.23949 9.57185 7.43783 9.33268 7.43783Z" fill="#292D32"/>
</svg>
