<svg width="14" height="14" viewBox="0 0 14 14" fill="none" xmlns="http://www.w3.org/2000/svg">
<path d="M12.8327 11.0833V12.8333H1.16602V11.0833C1.16602 10.7625 1.42852 10.5 1.74935 10.5H12.2493C12.5702 10.5 12.8327 10.7625 12.8327 11.0833Z" fill="#292D32" stroke="#292D32" stroke-width="1.5" stroke-miterlimit="10" stroke-linecap="round" stroke-linejoin="round"/>
<path d="M4.08268 6.41699H2.91602V10.5003H4.08268V6.41699Z" fill="#292D32"/>
<path d="M6.41667 6.41699H5.25V10.5003H6.41667V6.41699Z" fill="#292D32"/>
<path d="M8.75065 6.41699H7.58398V10.5003H8.75065V6.41699Z" fill="#292D32"/>
<path d="M11.0827 6.41699H9.91602V10.5003H11.0827V6.41699Z" fill="#292D32"/>
<path d="M13.4173 13.2705H0.583984C0.344818 13.2705 0.146484 13.0722 0.146484 12.833C0.146484 12.5938 0.344818 12.3955 0.583984 12.3955H13.4173C13.6565 12.3955 13.8548 12.5938 13.8548 12.833C13.8548 13.0722 13.6565 13.2705 13.4173 13.2705Z" fill="#292D32"/>
<path d="M12.4652 3.35375L7.21518 1.25375C7.09852 1.20708 6.90018 1.20708 6.78352 1.25375L1.53352 3.35375C1.32935 3.43542 1.16602 3.67458 1.16602 3.89625V5.83292C1.16602 6.15375 1.42852 6.41625 1.74935 6.41625H12.2493C12.5702 6.41625 12.8327 6.15375 12.8327 5.83292V3.89625C12.8327 3.67458 12.6694 3.43542 12.4652 3.35375ZM6.99935 4.95792C6.51518 4.95792 6.12435 4.56708 6.12435 4.08292C6.12435 3.59875 6.51518 3.20792 6.99935 3.20792C7.48352 3.20792 7.87435 3.59875 7.87435 4.08292C7.87435 4.56708 7.48352 4.95792 6.99935 4.95792Z" fill="#292D32"/>
</svg>
