<svg width="14" height="14" viewBox="0 0 14 14" fill="none" xmlns="http://www.w3.org/2000/svg">
<path d="M9.44352 1.16699H4.55518C2.43185 1.16699 1.16602 2.43283 1.16602 4.55616V9.43866C1.16602 11.5678 2.43185 12.8337 4.55518 12.8337H9.43768C11.561 12.8337 12.8268 11.5678 12.8268 9.44449V4.55616C12.8327 2.43283 11.5668 1.16699 9.44352 1.16699ZM6.38685 10.2145C6.21768 10.3837 5.89685 10.547 5.66352 10.582L4.22852 10.7862C4.17602 10.792 4.12352 10.7978 4.07102 10.7978C3.83185 10.7978 3.61018 10.7162 3.45268 10.5587C3.26018 10.3662 3.17852 10.0862 3.22518 9.77699L3.42935 8.34199C3.46435 8.10283 3.62185 7.78783 3.79685 7.61866L6.39852 5.01699C6.44518 5.13949 6.49185 5.26199 6.55602 5.40199C6.61435 5.52449 6.67852 5.65283 6.74852 5.76949C6.80685 5.86866 6.87102 5.96199 6.92352 6.03199C6.98768 6.13116 7.06352 6.22449 7.11018 6.27699C7.13935 6.31783 7.16268 6.34699 7.17435 6.35866C7.32018 6.53366 7.48935 6.69699 7.63518 6.81949C7.67602 6.86033 7.69935 6.88366 7.71102 6.88949C7.79852 6.95949 7.88601 7.02949 7.96185 7.08199C8.05518 7.15199 8.14852 7.21616 8.24768 7.26866C8.36435 7.33866 8.49268 7.40283 8.62102 7.46699C8.75518 7.52533 8.87768 7.57783 9.00018 7.61866L6.38685 10.2145ZM10.1318 6.46949L9.59518 7.01199C9.56018 7.04699 9.51352 7.06449 9.46685 7.06449C9.44935 7.06449 9.42601 7.06449 9.41435 7.05866C8.23018 6.72033 7.28518 5.77533 6.94685 4.59116C6.92935 4.52699 6.94685 4.45699 6.99352 4.41616L7.53602 3.87366C8.42268 2.98699 9.26851 3.00449 10.1377 3.87366C10.581 4.31699 10.7968 4.74283 10.7968 5.18616C10.791 5.60616 10.5752 6.02616 10.1318 6.46949Z" fill="#292D32"/>
</svg>
