<svg width="14" height="14" viewBox="0 0 14 14" fill="none" xmlns="http://www.w3.org/2000/svg">
<path d="M4.22878 7.00033C4.22878 6.76116 4.42711 6.56283 4.66628 6.56283H6.41628V4.37533C6.41628 4.05449 6.15378 3.79199 5.83295 3.79199H4.53211C2.69461 3.79199 1.09628 5.29699 1.16628 7.12866C1.20128 7.96283 1.55128 8.71533 2.10545 9.26949C2.68878 9.84699 3.48795 10.2087 4.37461 10.2087H5.83295C6.15378 10.2087 6.41628 9.94616 6.41628 9.62533V7.43783H4.66628C4.42711 7.43783 4.22878 7.23949 4.22878 7.00033Z" fill="#292D32"/>
<path d="M11.8948 4.73116C11.3115 4.15366 10.5123 3.79199 9.62565 3.79199H8.16732C7.84648 3.79199 7.58398 4.05449 7.58398 4.37533V6.56283H9.33398C9.57315 6.56283 9.77148 6.76116 9.77148 7.00033C9.77148 7.23949 9.57315 7.43783 9.33398 7.43783H7.58398V9.62533C7.58398 9.94616 7.84648 10.2087 8.16732 10.2087H9.46815C11.3057 10.2087 12.904 8.70366 12.8282 6.87199C12.799 6.03783 12.4432 5.28533 11.8948 4.73116Z" fill="#292D32"/>
<path d="M7.58268 6.5625H6.41602V7.4375H7.58268V6.5625Z" fill="#292D32"/>
</svg>
